<svg width="98" height="18" viewBox="0 0 98 18" fill="none" xmlns="http://www.w3.org/2000/svg">
<path fill-rule="evenodd" clip-rule="evenodd" d="M27.9897 1.84725C27.4803 0.343345 26.5439 0 26.0984 0H22.8438V17.312H25.4486V2.62474L26.185 4.69758L30.9024 17.312H34.0975L38.7908 4.69758L39.5527 2.74392V17.312H42.1576V0H38.893C38.4532 0 37.609 0.307875 37.0855 1.62167L33.9514 10.4366L32.5014 15.0362L31.0514 10.4366L27.9968 1.84158L27.9897 1.84867V1.84725Z" fill="white"/>
<path fill-rule="evenodd" clip-rule="evenodd" d="M50.3002 5.17725C46.8653 5.17725 44.0703 7.60762 44.0703 11.3759C44.0703 15.1442 46.8639 17.5746 50.3002 17.5746C53.7365 17.5746 56.5542 15.1442 56.5542 11.3759C56.5542 7.60762 53.7606 5.17725 50.3002 5.17725ZM50.3002 15.269C47.8031 15.269 46.617 14.029 46.617 11.3759C46.617 8.72278 47.8031 7.48277 50.3002 7.48277C52.7972 7.48277 54.0075 8.72278 54.0075 11.3759C54.0075 14.029 52.8214 15.269 50.3002 15.269Z" fill="white"/>
<path fill-rule="evenodd" clip-rule="evenodd" d="M65.1839 5.17725C62.8628 5.17725 61.6015 6.39172 61.0354 8.29714V5.42411H58.5156V17.3107H61.0354V11.715C61.0354 8.96539 62.3194 7.48135 64.3199 7.48135C65.9245 7.48135 66.9134 8.39788 66.9134 10.1799V17.3135H69.4331V10.0068C69.4331 6.85992 67.9761 5.17725 65.1839 5.17725Z" fill="white"/>
<path fill-rule="evenodd" clip-rule="evenodd" d="M74.7402 1.74637C74.7643 2.82464 74.1514 3.43613 73.0235 3.43613C71.8956 3.43613 71.3309 2.82322 71.3053 1.74637C71.2812 0.69363 71.9197 0.130374 73.0235 0.130374C74.1046 0.128955 74.7161 0.692211 74.7402 1.74637Z" fill="white"/>
<path d="M74.2492 5.39404H71.7266V17.3118H74.2492V5.39404Z" fill="white"/>
<path fill-rule="evenodd" clip-rule="evenodd" d="M84.6511 7.70565V5.4583H81.0488V1.82764H78.5319V5.4583H76.0391V7.70565H78.5319V14.0277C78.5319 16.0041 79.84 17.3122 81.8135 17.3122H84.2822V15.0649H81.0488V7.70565H84.6511Z" fill="white"/>
<path fill-rule="evenodd" clip-rule="evenodd" d="M91.4015 5.17725C87.9922 5.17725 85.5703 7.68139 85.5703 11.4C85.5703 15.1186 87.917 17.5731 91.5249 17.5731C93.9468 17.5731 96.3218 15.8053 96.6907 13.6559H94.4647C93.9213 15.0945 93.2048 15.5145 91.549 15.5145C89.3258 15.5145 88.3114 14.5724 88.1397 12.1676H96.9844C97.0085 11.6965 97.0085 11.4979 97.0085 11.1262C97.0099 7.48276 94.7115 5.17725 91.4001 5.17725H91.4015ZM88.1667 10.309C88.3894 8.15101 89.4507 7.1607 91.4285 7.1607C93.4062 7.1607 94.3937 8.029 94.4916 10.309H88.1667Z" fill="white"/>
<path fill-rule="evenodd" clip-rule="evenodd" d="M18.5621 13.2457C19.0204 12.8981 19.3921 12.2185 19.3921 11.7262V5.58574C19.3921 5.09342 19.019 4.41383 18.5621 4.06623L13.2985 0H8.02344L17.4569 7.13789C17.9152 7.48549 18.2869 8.16508 18.2869 8.6574C18.2869 9.14972 17.9138 9.82931 17.4569 10.1769L8.02344 17.312H13.2985L18.5621 13.2443V13.2457Z" fill="#3C37FF"/>
<path fill-rule="evenodd" clip-rule="evenodd" d="M10.3954 13.3876C10.8537 13.04 11.2254 12.3604 11.2254 11.8681V5.44386C11.2254 4.95154 10.8523 4.27195 10.3954 3.92435L5.27503 0H0L9.43206 7.13789C9.89032 7.48549 10.262 8.16508 10.262 8.6574C10.262 9.14972 9.8889 9.82931 9.43206 10.1769L0 17.312H5.27503L10.3968 13.3862L10.3954 13.3876Z" fill="#3C37FF"/>
</svg>
